#!OML:ASF H:\MichaelJackson\Top Level 1\Subject 1\Session 1\male.ASF
:FULLY-SPECIFIED
:DEGREES
633
root 5.13362 16.4788 1.47192 -14.9677 30.7831 -11.6213
lowerback 12.3218 1.02855 -1.42178
upperback 3.12649 1.42471 4.13571
thorax -3.76638 0.748147 4.92693
lowerneck -10.5429 -3.48782 4.01531
upperneck 10.194 -5.01716 -2.4618
head 4.61447 -2.46278 -1.75457
rclavicle 4.70374e-014 2.98177e-014
rhumerus -37.2544 4.96345 -84.74
rradius 87.0375
rwrist 8.04584
rhand -22.9629 -19.1817
rfingers 7.12502
rthumb 3.47892 -409.133
lclavicle 4.70374e-014 2.98177e-014
lhumerus -52.7584 9.47329 70.9414
lradius 54.9651
lwrist 25.216
lhand 0.399951 12.5474
lfingers 7.12502
lthumb 25.9734 40.7926
rfemur -62.9066 -18.3997 7.44655
rtibia 40.1216
rfoot 8.16017 -2.60214
rtoes -13.1675
lfemur -12.9066 17.4608 -15.0211
ltibia 48.4663
lfoot -26.9168 19.2404
ltoes 21.6554
634
root 5.11484 16.4556 1.57698 -15.0515 32.1385 -11.8012
lowerback 12.1757 1.0533 -1.81008
upperback 3.10189 1.40986 4.12411
thorax -3.71865 0.743637 5.14045
lowerneck -10.6752 -3.76066 3.7769
upperneck 10.31 -5.37827 -2.24618
head 4.67273 -2.63413 -1.67883
rclavicle -3.15322e-014 9.93923e-015
rhumerus -37.5231 3.96013 -84.9786
rradius 86.6416
rwrist 7.59813
rhand -24.5737 -18.7399
rfingers 7.12502
rthumb 1.92333 -408.711
lclavicle -3.15322e-014 9.93923e-015
lhumerus -51.8865 10.1045 68.2559
lradius 56.2129
lwrist 28.9139
lhand -6.08124 11.1579
lfingers 7.12502
lthumb 19.7543 40.1741
rfemur -65.1166 -19.6324 8.59254
rtibia 44.4677
rfoot 8.36939 -4.24677
rtoes -12.3244
lfemur -13.2869 16.7086 -15.0593
ltibia 49.2261
lfoot -26.8702 19.7365
ltoes 19.7946
635
root 5.09188 16.4327 1.69015 -15.1395 33.7381 -12.0805
lowerback 11.9383 1.06164 -2.22476
upperback 3.02413 1.37297 4.13002
thorax -3.67481 0.729143 5.39188
lowerneck -10.7932 -4.09027 3.45643
upperneck 10.537 -5.80512 -2.00809
head 4.76579 -2.83762 -1.59007
rclavicle 1.27496e-013 -1.35174e-014
rhumerus -38.0113 2.85442 -85.1292
rradius 86.1709
rwrist 8.51296
rhand -26.751 -18.5988
rfingers 7.12502
rthumb -0.179564 -408.578
lclavicle 1.27496e-013 -1.35174e-014
lhumerus -50.719 10.6177 65.4898
lradius 57.0601
lwrist 30.8639
lhand -12.9507 8.43621
lfingers 7.12502
lthumb 13.1407 38.0021
rfemur -67.0132 -20.517 8.98289
rtibia 49.0746
rfoot 8.95293 -5.06887
rtoes -11.2856
lfemur -13.8103 16.0336 -15.0159
ltibia 50.0724
lfoot -26.8577 19.9389
ltoes 17.9258
636
root 5.06555 16.4103 1.81204 -15.3435 35.5256 -12.5598
lowerback 11.6663 1.05681 -2.59578
upperback 2.90708 1.32882 4.18164
thorax -3.65172 0.712177 5.66847
lowerneck -10.8918 -4.46877 3.06052
upperneck 10.8572 -6.28802 -1.75137
head 4.8886 -3.06868 -1.48998
rclavicle 2.67117e-014 -1.94809e-014
rhumerus -38.7302 1.63772 -85.1679
rradius 85.6656
rwrist 10.5517
rhand -29.3638 -18.9693
rfingers 7.12502
rthumb -2.70301 -408.932
lclavicle 2.67117e-014 -1.94809e-014
lhumerus -49.243 11.0144 62.6905
lradius 57.4613
lwrist 30.7433
lhand -19.8336 4.71363
lfingers 7.12502
lthumb 6.50044 34.5939
rfemur -68.5556 -21.2319 8.90171
rtibia 53.7964
rfoot 9.97448 -4.55213
rtoes -11.1053
lfemur -14.4206 15.5267 -14.76
ltibia 51.0037
lfoot -26.9126 19.7899
ltoes 16.1059
637
root 5.03627 16.3885 1.9423 -15.6891 37.4187 -13.319
lowerback 11.3427 1.04956 -2.85383
upperback 2.734 1.29958 4.2745
thorax -3.65878 0.703975 5.92221
lowerneck -10.9633 -4.8916 2.62455
upperneck 11.2575 -6.82855 -1.46325
head 5.03655 -3.32591 -1.38043
rclavicle 3.82164e-014 -3.97569e-015
rhumerus -39.6802 0.283324 -85.1109
rradius 85.1757
rwrist 13.1336
rhand -32.2418 -19.9074
rfingers 7.12502
rthumb -5.48216 -409.817
lclavicle 3.82164e-014 -3.97569e-015
lhumerus -47.459 11.2554 59.8484
lradius 57.4352
lwrist 28.6579
lhand -26.4912 0.778243
lfingers 7.12502
lthumb 0.0713077 30.758
rfemur -69.7786 -21.8224 8.56799
rtibia 58.5034
rfoot 11.2757 -2.49163
rtoes -12.1113
lfemur -15.1654 15.2815 -14.2271
ltibia 52.0223
lfoot -27.0397 19.3003
ltoes 14.3584
638
root 5.00499 16.367 2.07974 -16.2568 39.3433 -14.4475
lowerback 10.9847 1.04125 -2.94109
upperback 2.51147 1.29372 4.42312
thorax -3.69909 0.708589 6.13401
lowerneck -11.0086 -5.35032 2.16711
upperneck 11.7116 -7.41916 -1.14552
head 5.2024 -3.60514 -1.26436
rclavicle 7.55133e-014 -1.86858e-014
rhumerus -40.8262 -1.17104 -84.9624
rradius 84.7717
rwrist 15.6255
rhand -35.1434 -21.5476
rfingers 7.12502
rthumb -8.28315 -411.365
lclavicle 7.55133e-014 -1.86858e-014
lhumerus -45.3688 11.371 56.962
lradius 57.0523
lwrist 25.1652
lhand -32.7102 -2.50674
lfingers 7.12502
lthumb -5.93442 27.3902
rfemur -70.6886 -22.3113 8.18611
rtibia 63.0902
rfoot 12.5494 1.07444
rtoes -14.3521
lfemur -16.0432 15.3587 -13.3649
ltibia 53.1194
lfoot -27.2416 18.5396
ltoes 12.7326
639
root 4.97331 16.3449 2.22326 -17.0186 41.2625 -15.9521
lowerback 10.5272 1.0365 -2.86247
upperback 2.23073 1.31522 4.61011
thorax -3.74606 0.727203 6.28775
lowerneck -11.0138 -5.84617 1.70906
upperneck 12.1819 -8.06726 -0.785784
head 5.37288 -3.90855 -1.14085
rclavicle -2.39039e-014 7.95139e-015
rhumerus -42.1214 -2.73218 -84.7126
rradius 84.5382
rwrist 17.168
rhand -37.7274 -23.3253
rfingers 7.12502
rthumb -10.7764 -413.029
lclavicle -2.39039e-014 7.95139e-015
lhumerus -42.9459 11.3682 54.0218
lradius 56.4116
lwrist 21.1454
lhand -38.1746 -4.56821
lfingers 7.12502
lthumb -11.2076 25.1124
rfemur -71.3892 -22.7645 7.90883
rtibia 67.4814
rfoot 13.5764 5.77237
rtoes -16.9071
lfemur -17.1155 15.7786 -12.246
ltibia 54.2683
lfoot -27.4977 17.6315
ltoes 11.2442
640
root 4.94237 16.3226 2.37097 -18.0185 43.1688 -17.8475
lowerback 9.97527 1.02194 -2.64135
upperback 1.91251 1.34194 4.83846
thorax -3.77786 0.747904 6.40337
lowerneck -10.9923 -6.36908 1.24896
upperneck 12.631 -8.75937 -0.389433
head 5.53974 -4.23032 -1.01019
rclavicle -7.70788e-014 4.13472e-014
rhumerus -43.501 -4.30053 -84.3754
rradius 84.486
rwrist 17.5014
rhand -40.0215 -25.0045
rfingers 7.12502
rthumb -12.9885 -414.58
lclavicle -7.70788e-014 4.13472e-014
lhumerus -40.1713 11.3077 51.0628
lradius 55.6115
lwrist 17.5543
lhand -42.7369 -5.40097
lfingers 7.12502
lthumb -15.6049 23.9896
rfemur -71.9018 -23.2413 7.83062
rtibia 71.6246
rfoot 14.4485 11.0329
rtoes -18.8308
lfemur -18.3624 16.5048 -10.9405
ltibia 55.4215
lfoot -27.7766 16.7137
ltoes 9.87159
641
root 4.9135 16.3008 2.52068 -19.2715 45.0765 -20.0855
lowerback 9.36132 0.996718 -2.33178
upperback 1.56873 1.36349 5.08408
thorax -3.79857 0.765499 6.48769
lowerneck -10.9313 -6.91946 0.798106
upperneck 13.0254 -9.49787 0.043054
head 5.6906 -4.57168 -0.873277
rclavicle 1.31198e-014 -1.90833e-014
rhumerus -44.9275 -5.82624 -83.9518
rradius 84.6199
rwrist 16.5801
rhand -42.0006 -26.3749
rfingers 7.12502
rthumb -14.8957 -415.819
lclavicle 1.31198e-014 -1.90833e-014
lhumerus -37.0147 11.2144 48.1155
lradius 54.7075
lwrist 15.135
lhand -46.2407 -5.72556
lfingers 7.12502
lthumb -18.9772 23.3687
rfemur -72.2293 -23.7988 7.95119
rtibia 75.4843
rfoot 15.5874 16.2479
rtoes -19.3983
lfemur -19.7324 17.4513 -9.57431
ltibia 56.5207
lfoot -28.066 15.9138
ltoes 8.61219
642
root 4.88763 16.2805 2.67039 -20.8168 47.0069 -22.6081
lowerback 8.76963 0.959331 -1.9966
upperback 1.21507 1.3693 5.32758
thorax -3.83802 0.775554 6.5574
lowerneck -10.8253 -7.49242 0.358158
upperneck 13.349 -10.2753 0.504152
head 5.81977 -4.9299 -0.731393
rclavicle 1.26228e-014 -5.1684e-014
rhumerus -46.365 -7.26205 -83.417
rradius 84.9034
rwrist 14.6834
rhand -43.6296 -27.5128
rfingers 7.12502
rthumb -16.4646 -416.834
lclavicle 1.26228e-014 -5.1684e-014
lhumerus -33.4637 11.1504 45.2204
lradius 53.6832
lwrist 14.1329
lhand -48.7374 -6.54611
lfingers 7.12502
lthumb -21.3768 22.2947
rfemur -72.3238 -24.4806 8.21823
rtibia 79.0433
rfoot 17.4703 20.8668
rtoes -18.3232
lfemur -21.1244 18.4905 -8.2534
ltibia 57.5019
lfoot -28.3493 15.3098
ltoes 7.44145
643
root 4.8651 16.2621 2.8182 -22.6746 48.9636 -25.3596
lowerback 8.26314 0.916203 -1.69785
upperback 0.868419 1.3618 5.5542
thorax -3.91544 0.780002 6.63184
lowerneck -10.6652 -8.08209 -0.0597022
upperneck 13.5852 -11.0835 0.983942
head 5.91979 -5.30196 -0.587535
rclavicle 6.62947e-014 -6.36111e-015
rhumerus -47.7868 -8.56238 -82.7652
rradius 85.2379
rwrist 12.3586
rhand -44.9177 -28.7411
rfingers 7.12502
rthumb -17.7045 -417.955
lclavicle 6.62947e-014 -6.36111e-015
lhumerus -29.5172 11.1977 42.4295
lradius 52.4694
lwrist 14.2722
lhand -50.3843 -8.52237
lfingers 7.12502
lthumb -22.9579 20.1306
rfemur -72.1493 -25.3042 8.57139
rtibia 82.2845
rfoot 20.3014 24.4407
rtoes -15.8234
lfemur -22.451 19.4773 -7.04281
ltibia 58.3244
lfoot -28.6154 14.8888
ltoes 6.29829
644
root 4.8474 16.2463 2.96316 -24.7849 51.0104 -28.1086
lowerback 7.9238 0.867676 -1.62399
upperback 0.582329 1.3223 5.72393
thorax -4.02217 0.770822 6.77895
lowerneck -10.4679 -8.67405 -0.462652
upperneck 13.7296 -11.8997 1.47367
head 5.99201 -5.67832 -0.44169
rclavicle 9.64106e-015 1.59028e-014
rhumerus -49.1318 -9.68444 -81.9728
rradius 85.5347
rwrist 9.91412
rhand -45.8791 -30.137
rfingers 7.12502
rthumb -18.6294 -419.265
lclavicle 9.64106e-015 1.59028e-014
lhumerus -25.2148 11.4717 39.7984
lradius 50.9805
lwrist 14.9213
lhand -51.3715 -11.5543
lfingers 7.12502
lthumb -23.9049 16.9778
rfemur -71.5898 -26.3202 8.75702
rtibia 85.2105
rfoot 23.7851 26.813
rtoes -12.6879
lfemur -23.5376 20.2209 -6.08996
ltibia 58.9608
lfoot -28.8851 14.5899
ltoes 5.15007
645
root 4.83351 16.2337 3.10369 -27.2477 53.0787 -30.9446
lowerback 7.84203 0.82572 -1.7022
upperback 0.352779 1.27769 5.85535
thorax -4.21602 0.762555 6.97356
lowerneck -10.2328 -9.26259 -0.862852
upperneck 13.8059 -12.7151 1.97891
head 6.04479 -6.05479 -0.289954
rclavicle 1.59028e-015 4.21423e-014
rhumerus -50.4013 -10.6022 -81.0396
rradius 85.6507
rwrist 7.81318
rhand -46.5272 -31.7612
rfingers 7.12502
rthumb -19.2527 -420.828
lclavicle 1.59028e-015 4.21423e-014
lhumerus -20.6281 11.9903 37.3961
lradius 49.1447
lwrist 15.3271
lhand -52.0148 -15.0661
lfingers 7.12502
lthumb -24.5217 13.3838
rfemur -70.5951 -27.4503 8.80167
rtibia 87.799
rfoot 27.3694 27.9688
rtoes -9.87179
lfemur -24.3291 20.62 -5.24811
ltibia 59.4332
lfoot -29.1623 14.2704
ltoes 4.04029
646
root 4.82357 16.2225 3.24006 -30.0454 55.1881 -33.8227
lowerback 8.03671 0.793197 -1.96678
upperback 0.193833 1.22594 5.93135
thorax -4.49317 0.754777 7.21828
lowerneck -9.98509 -9.84482 -1.25417
upperneck 13.8361 -13.5274 2.50083
head 6.08911 -6.4293 -0.134486
rclavicle 4.01048e-014 -3.18055e-014
rhumerus -51.5728 -11.3386 -79.967
rradius 85.53
rwrist 6.10903
rhand -46.8989 -33.5053
rfingers 7.12502
rthumb -19.6101 -422.536
lclavicle 4.01048e-014 -3.18055e-014
lhumerus -15.8176 12.786 35.2799
lradius 46.9352
lwrist 14.8784
lhand -52.5161 -18.3239
lfingers 7.12502
lthumb -25.0021 10.0601
rfemur -69.1199 -28.6817 8.57291
rtibia 90.0388
rfoot 30.4972 28.1672
rtoes -8.12537
lfemur -24.81 20.5878 -4.51998
ltibia 59.7818
lfoot -29.4471 13.8471
ltoes 2.95073
647
root 4.81659 16.2112 3.37295 -33.1314 57.281 -36.7958
lowerback 8.43395 0.773478 -2.38751
upperback 0.0829211 1.17165 5.97111
thorax -4.83611 0.75053 7.51726
lowerneck -9.73653 -10.412 -1.65933
upperneck 13.8468 -14.323 3.0469
head 6.13731 -6.79513 0.0298234
rclavicle 2.56432e-014 3.33958e-014
rhumerus -52.6346 -11.8677 -78.7852
rradius 85.099
rwrist 4.79867
rhand -47.0537 -35.0223
rfingers 7.12502
rthumb -19.7589 -424.038
lclavicle 2.56432e-014 3.33958e-014
lhumerus -10.9043 13.8607 33.4844
lradius 44.4084
lwrist 13.3058
lhand -52.977 -20.9733
lfingers 7.12502
lthumb -25.4437 7.34847
rfemur -67.2572 -29.9145 8.08518
rtibia 91.9067
rfoot 32.8683 27.7078
rtoes -7.51284
lfemur -25.1099 20.1592 -3.86274
ltibia 60.075
lfoot -29.6907 13.2704
ltoes 1.80521
